<svg id="Flat" enable-background="new 0 0 64 64" height="512" viewBox="0 0 64 64" width="512" xmlns="http://www.w3.org/2000/svg"><path d="m3 52v-49h39l7 7v42z" fill="#f7f4f0"/><path d="m49 10h-7v-7z" fill="#dbd8d5"/><circle cx="11" cy="11" fill="#dbd8d5" r="3"/><circle cx="21" cy="11" fill="#dbd8d5" r="3"/><circle cx="31" cy="11" fill="#76cc7a" r="3"/><circle cx="11" cy="21" fill="#dbd8d5" r="3"/><circle cx="21" cy="21" fill="#76cc7a" r="3"/><circle cx="31" cy="21" fill="#dbd8d5" r="3"/><path d="m44 24h2v2h-2z" fill="#454a6d"/><path d="m44 20h2v2h-2z" fill="#454a6d"/><path d="m44 16h2v2h-2z" fill="#454a6d"/><path d="m11 33h41v6h-41z" fill="#eae8e5"/><path d="m7 47h53v10h-53z" fill="#eae8e5"/><path d="m7 52c0-2.761 2.239-5 5-5h49v-4h-49c-4.971 0-9 4.029-9 9 0 4.971 4.029 9 9 9h49v-4h-49c-2.761 0-5-2.239-5-5z" fill="#4ac3ed"/><path d="m11 36c0-1.657 1.343-3 3-3h39v-4h-39c-3.866 0-7 3.134-7 7 0 3.866 3.134 7 7 7h39v-4h-39c-1.657 0-3-1.343-3-3z" fill="#e89d43"/><g fill="#dbd8d5"><path d="m33 52h12v2h-12z"/><path d="m47 52h2v2h-2z"/><path d="m51 52h2v2h-2z"/><path d="m55 52h2v2h-2z"/></g><path d="m59 3 2 5v35h-4v-35z" fill="#454a6d"/><path d="m57 37h4v2h-4z" fill="#e89d43"/></svg>