<?xml version="1.0" encoding="iso-8859-1"?>
<!-- Generator: Adobe Illustrator 19.0.0, SVG Export Plug-In . SVG Version: 6.00 Build 0)  -->
<svg version="1.1" id="Capa_1" xmlns="http://www.w3.org/2000/svg" xmlns:xlink="http://www.w3.org/1999/xlink" x="0px" y="0px"
	 viewBox="0 0 512 512" style="enable-background:new 0 0 512 512;" xml:space="preserve">
<g>
	<circle style="fill:#D8AD8F;" cx="110.7" cy="210.26" r="24.433"/>
	<circle style="fill:#D8AD8F;" cx="268.17" cy="210.26" r="24.433"/>
</g>
<path style="fill:#E5E4D3;" d="M495.212,163.804c30.784-46.028,18.056-108.437-28.551-138.676
	C420.953-4.528,359.217,8.535,329.385,54.129c-24.004,36.687-20.635,83.497,5.278,116.173l-2.05,45.119
	c-0.281,6.189,6.11,10.463,11.723,7.84l40.917-19.124C425.66,215.699,470.591,200.616,495.212,163.804z"/>
<polygon style="fill:#D8AD8F;" points="226.593,257.685 152.271,257.685 152.271,359.592 189.371,391.482 189.371,391.586 
	189.432,391.534 189.492,391.586 189.492,391.482 226.593,359.592 "/>
<path style="fill:#F26200;" d="M311.014,367.9l-84.421-27.07l-37.161,26.061l-37.161-26.061L67.85,367.9
	C27.428,380.855,0,418.453,0,460.905v33.621c0,4.552,3.69,8.241,8.241,8.241h181.13h0.121h181.13c4.552,0,8.241-3.69,8.241-8.241
	v-33.621C378.863,418.453,351.435,380.855,311.014,367.9z"/>
<path style="fill:#EFCDB1;" d="M268.17,144.57v62.658c0,32.765-17.335,63.083-45.565,79.703l-11.64,6.835
	c-13.332,7.821-29.845,7.812-43.167-0.029l-11.543-6.806c-28.231-16.619-45.556-46.938-45.556-79.703V144.57
	c0-31.489,23.716-57.447,54.257-60.976c2.34-0.28,4.718-0.416,7.135-0.416h34.689C240.684,83.178,268.17,110.664,268.17,144.57z"/>
<g>
	<path style="fill:#8B381E;" d="M164.955,83.594c-14.55,58.907-54.257,70.963-54.257,70.963v-9.987
		C110.698,113.081,134.414,87.123,164.955,83.594z"/>
	<path style="fill:#8B381E;" d="M268.17,144.57v41.253c-92.445,0-103.215-102.229-103.215-102.229
		c2.34-0.28,4.718-0.416,7.135-0.416h34.689C240.684,83.178,268.17,110.664,268.17,144.57z"/>
</g>
<path style="fill:#D8AD8F;" d="M197.107,236.891h-16.758c-4.267,0-7.726-3.459-7.726-7.726v-37.763c0-4.267,3.459-7.726,7.726-7.726
	s7.726,3.459,7.726,7.726v30.037h9.032c4.267,0,7.726,3.459,7.726,7.726S201.374,236.891,197.107,236.891z"/>
<polygon style="fill:#B72F00;" points="215.949,366.933 190.039,366.933 188.946,366.933 163.035,366.933 163.035,398.989 
	171.549,412.527 163.035,502.768 188.946,502.768 190.039,502.768 215.949,502.768 207.435,412.527 215.949,398.989 "/>
<g>
	<path style="fill:#FEC007;" d="M189.492,366.933l-22.689,26.814c-4.959,5.861-14.533,2.354-14.533-5.324v-47.594L189.492,366.933z"
		/>
	<path style="fill:#FEC007;" d="M189.371,366.933l22.689,26.814c4.959,5.861,14.533,2.354,14.533-5.324v-47.594L189.371,366.933z"/>
</g>
<g>
	<path style="fill:#FE9700;" d="M152.271,340.831v161.934H8.241c-4.552,0-8.241-3.69-8.241-8.241v-33.625
		c0-38.302,22.324-72.638,56.382-88.513c3.688-1.72,7.51-3.224,11.466-4.492L152.271,340.831z"/>
	<path style="fill:#FE9700;" d="M378.87,460.899v33.625c0,4.552-3.69,8.241-8.241,8.241h-144.03V340.831l84.413,27.063
		c3.956,1.267,7.778,2.771,11.466,4.492C356.535,388.261,378.87,422.597,378.87,460.899z"/>
</g>
<g>
	<path style="fill:#F26200;" d="M96.312,358.767l-21.871,9.138c-31.039,12.949-52.096,50.551-52.096,93.005v41.856H8.241
		c-4.552,0-8.241-3.69-8.241-8.241V460.9c0-42.454,27.423-80.035,67.848-93.005L96.312,358.767z"/>
	<path style="fill:#F26200;" d="M378.87,460.899v33.625c0,4.552-3.69,8.241-8.241,8.241h-14.113v-41.856
		c0-42.454-21.057-80.055-52.096-93.005l-21.871-9.138l28.464,9.127C351.436,380.864,378.87,418.445,378.87,460.899z"/>
</g>
<g>
	<path style="fill:#FB4239;" d="M408.291,138.817c-4.268,0-7.726-3.459-7.726-7.726v-23.622c0-6.919,6.85-10.464,17.903-13.941
		c3.842-1.208,7.059-3.581,9.061-6.682c1.967-3.046,2.861-6.597,2.588-10.266c-0.602-8.086-7.15-14.642-15.233-15.253
		c-7.01-0.53-13.616,3.404-16.465,9.786c-1.741,3.897-6.313,5.645-10.205,3.904c-3.896-1.74-5.645-6.309-3.905-10.205
		c5.501-12.318,18.256-19.911,31.738-18.893c15.643,1.181,28.317,13.869,29.481,29.513c0.526,7.051-1.208,13.897-5.015,19.795
		c-3.954,6.123-10.135,10.754-17.407,13.041c-3.396,1.068-5.677,1.981-7.088,2.632v20.191
		C416.017,135.357,412.558,138.817,408.291,138.817z"/>
	<path style="fill:#FB4239;" d="M408.754,166.983c-5.678,0-10.297-4.619-10.297-10.296c0-5.678,4.619-10.296,10.297-10.296
		c5.677,0,10.296,4.619,10.296,10.296C419.049,162.364,414.431,166.983,408.754,166.983z"/>
</g>
<g>
</g>
<g>
</g>
<g>
</g>
<g>
</g>
<g>
</g>
<g>
</g>
<g>
</g>
<g>
</g>
<g>
</g>
<g>
</g>
<g>
</g>
<g>
</g>
<g>
</g>
<g>
</g>
<g>
</g>
</svg>
