<svg height="452pt" viewBox="0 0 452 452.62" width="452pt" xmlns="http://www.w3.org/2000/svg"><path d="m448.28125 151.351562c-71.226562-29.503906-151.253906-29.503906-222.480469 0v298.128907c71.226563-29.503907 151.253907-29.503907 222.480469 0 0-99.375 0-198.75 0-298.128907zm0 0" fill="#d7e057"/><path d="m448.285156 452.484375c-.390625 0-.777344-.078125-1.148437-.226563-70.996094-29.40625-149.195313-29.40625-220.1875 0-.925781.382813-1.980469.277344-2.816407-.28125-.832031-.554687-1.332031-1.492187-1.332031-2.492187v-298.132813c0-1.214843.730469-2.308593 1.851563-2.773437 72.476562-30.019531 152.304687-30.019531 224.78125 0 1.121094.464844 1.851562 1.558594 1.851562 2.773437v298.128907c0 1.003906-.5 1.941406-1.332031 2.496093-.503906.335938-1.085937.507813-1.667969.507813zm-111.242187-28.289063c36.621093 0 73.25 6.945313 108.242187 20.832032v-291.664063c-69.890625-28.394531-146.597656-28.394531-216.484375 0v291.667969c34.988281-13.890625 71.613281-20.835938 108.242188-20.835938zm0 0" fill="#3a312a"/><path d="m3.3125 286.527344v162.957031c71.226562-29.503906 151.253906-29.503906 222.480469 0v-298.132813c-71.226563-29.503906-151.253907-29.503906-222.480469 0zm0 0" fill="#d7e057"/><g fill="#3a312a"><path d="m225.792969 452.484375c-.386719 0-.777344-.078125-1.148438-.226563-70.992187-29.40625-149.191406-29.40625-220.183593 0-.929688.382813-1.984376.277344-2.816407-.28125-.835937-.554687-1.335937-1.492187-1.335937-2.492187v-162.957031c0-1.660156 1.34375-3 3-3 1.660156 0 3 1.339844 3 3v158.5c69.980468-27.777344 146.503906-27.777344 216.484375 0v-291.664063c-69.886719-28.394531-146.597657-28.394531-216.484375 0v106.648438c0 1.660156-1.339844 3-3 3-1.65625 0-3-1.339844-3-3v-108.660157c0-1.214843.730468-2.308593 1.851562-2.773437 72.476563-30.019531 152.304688-30.019531 224.78125 0 1.121094.464844 1.851563 1.558594 1.851563 2.773437v298.128907c0 1.003906-.5 1.941406-1.332031 2.496093-.5.335938-1.082032.507813-1.667969.507813zm0 0"/><path d="m200.152344 396.335938c-.289063 0-.589844-.042969-.882813-.136719-55.433593-17.097657-114.023437-17.09375-169.429687 0-1.585938.492187-3.265625-.398438-3.75-1.980469-.492188-1.585938.394531-3.261719 1.980468-3.753906 56.5625-17.453125 116.375-17.453125 172.96875 0 1.582032.488281 2.472657 2.167968 1.984376 3.75-.402344 1.292968-1.589844 2.121094-2.871094 2.121094zm0 0"/><path d="m252.617188 395.945312c-1.289063 0-2.476563-.832031-2.871094-2.128906-.480469-1.585937.414062-3.257812 1.996094-3.742187 55.636718-16.902344 114.480468-16.941407 170.179687-.109375 1.585937.480468 2.480469 2.152344 2.003906 3.738281-.480469 1.585937-2.152343 2.480469-3.738281 2.003906-54.558594-16.488281-112.203125-16.445312-166.699219.109375-.289062.085938-.582031.128906-.871093.128906zm0 0"/><path d="m28.953125 354.914062c-1.28125 0-2.46875-.828124-2.867187-2.117187-.488282-1.582031.398437-3.261719 1.980468-3.75 56.566406-17.457031 116.378906-17.453125 172.96875 0 1.585938.488281 2.472656 2.167969 1.984375 3.75s-2.167969 2.472656-3.75 1.984375c-55.433593-17.097656-114.023437-17.097656-169.429687 0-.296875.089844-.597656.132812-.886719.132812zm0 0"/><path d="m252.617188 354.527344c-1.289063 0-2.476563-.835938-2.871094-2.128906-.480469-1.585938.414062-3.261719 1.996094-3.742188 55.636718-16.902344 114.480468-16.941406 170.179687-.113281 1.585937.480469 2.480469 2.15625 2.003906 3.742187-.480469 1.582032-2.152343 2.476563-3.738281 2.003906-54.558594-16.488281-112.203125-16.445312-166.699219.105469-.289062.089844-.582031.132813-.871093.132813zm0 0"/><path d="m200.152344 313.492188c-.289063 0-.589844-.039063-.882813-.132813-55.433593-17.097656-114.023437-17.09375-169.429687 0-1.585938.488281-3.265625-.398437-3.75-1.984375-.492188-1.582031.394531-3.261719 1.980468-3.75 56.5625-17.453125 116.375-17.453125 172.96875 0 1.582032.488281 2.472657 2.167969 1.984376 3.75-.402344 1.289062-1.589844 2.117188-2.871094 2.117188zm0 0"/><path d="m252.617188 313.109375c-1.289063 0-2.476563-.835937-2.871094-2.128906-.480469-1.585938.414062-3.261719 1.996094-3.742188 55.636718-16.90625 114.480468-16.941406 170.179687-.113281 1.585937.480469 2.480469 2.15625 2.003906 3.742188-.480469 1.582031-2.152343 2.480468-3.738281 2.003906-54.558594-16.488282-112.203125-16.449219-166.699219.105468-.289062.089844-.582031.132813-.871093.132813zm0 0"/><path d="m200.152344 272.074219c-.289063 0-.589844-.039063-.882813-.132813-55.433593-17.097656-114.023437-17.09375-169.429687 0-1.585938.492188-3.265625-.398437-3.75-1.984375-.492188-1.582031.394531-3.261719 1.980468-3.75 56.5625-17.457031 116.375-17.453125 172.96875-.003906 1.582032.488281 2.472657 2.167969 1.984376 3.753906-.402344 1.289063-1.589844 2.117188-2.871094 2.117188zm0 0"/><path d="m252.617188 271.6875c-1.289063 0-2.476563-.832031-2.871094-2.128906-.480469-1.582032.414062-3.257813 1.996094-3.742188 55.636718-16.902344 114.480468-16.941406 170.179687-.109375 1.585937.480469 2.480469 2.152344 2.003906 3.738281-.480469 1.585938-2.152343 2.480469-3.738281 2.003907-54.558594-16.488281-112.203125-16.445313-166.699219.109375-.289062.089844-.582031.128906-.871093.128906zm0 0"/><path d="m200.152344 230.65625c-.289063 0-.589844-.042969-.882813-.132812-55.433593-17.097657-114.023437-17.097657-169.429687-.003907-1.585938.488281-3.265625-.398437-3.75-1.980469-.492188-1.585937.394531-3.261718 1.980468-3.75 56.5625-17.457031 116.375-17.453124 172.96875-.003906 1.582032.488282 2.472657 2.167969 1.984376 3.753906-.402344 1.289063-1.589844 2.117188-2.871094 2.117188zm0 0"/><path d="m252.617188 230.269531c-1.289063 0-2.476563-.832031-2.871094-2.128906-.480469-1.585937.414062-3.261719 1.996094-3.742187 55.636718-16.90625 114.480468-16.945313 170.179687-.113282 1.585937.480469 2.480469 2.15625 2.003906 3.742188-.480469 1.582031-2.152343 2.476562-3.738281 2.003906-54.558594-16.488281-112.203125-16.449219-166.699219.105469-.289062.089843-.582031.132812-.871093.132812zm0 0"/><path d="m200.152344 189.234375c-.289063 0-.589844-.039063-.882813-.132813-55.433593-17.097656-114.023437-17.09375-169.429687 0-1.585938.492188-3.265625-.398437-3.75-1.980468-.492188-1.582032.394531-3.261719 1.980468-3.75 56.5625-17.457032 116.375-17.457032 172.96875-.003906 1.582032.488281 2.472657 2.167968 1.984376 3.753906-.402344 1.285156-1.589844 2.113281-2.871094 2.113281zm0 0"/><path d="m252.617188 188.851562c-1.289063 0-2.476563-.835937-2.871094-2.128906-.480469-1.585937.414062-3.261718 1.996094-3.742187 55.636718-16.90625 114.480468-16.941407 170.179687-.113281 1.585937.480468 2.480469 2.15625 2.003906 3.742187-.480469 1.582031-2.152343 2.480469-3.738281 2.003906-54.558594-16.488281-112.203125-16.449219-166.699219.105469-.289062.089844-.582031.132812-.871093.132812zm0 0"/></g><path d="m65.886719 23.191406s6.816406 25.320313 26.445312 26.492188c0 0-26.199219 9.050781-26.640625 28.40625 0 0-5.160156-27.144532-25.851562-28.121094 0 0 24.101562-3.648438 26.046875-26.777344zm0 0" fill="#d7e057"/><path d="m65.6875 81.089844c-1.425781 0-2.671875-1.015625-2.945312-2.4375-.046876-.246094-4.988282-24.832032-23.042969-25.683594-1.542969-.074219-2.777344-1.300781-2.855469-2.839844-.082031-1.542968 1.019531-2.890625 2.542969-3.121094.882812-.140624 21.789062-3.636718 23.507812-24.066406.125-1.453125 1.269531-2.601562 2.71875-2.734375 1.464844-.113281 2.785157.796875 3.167969 2.199219.0625.234375 6.515625 23.253906 23.726562 24.285156 1.429688.085938 2.59375 1.167969 2.792969 2.582032.195313 1.417968-.640625 2.777343-1.988281 3.246093-.242188.085938-24.238281 8.621094-24.625 25.636719-.039062 1.535156-1.222656 2.792969-2.75 2.917969-.082031.011719-.167969.015625-.25.015625zm-15.484375-31.460938c7.757813 3.9375 12.460937 11.492188 15.175781 17.75 4.050782-8.039062 11.882813-13.574218 17.898438-16.851562-8.269532-3.683594-13.566406-11.304688-16.667969-17.449219-3.585937 8.722656-10.542969 13.738281-16.40625 16.550781zm0 0" fill="#3a312a"/><path d="m22.488281 57.152344s4.824219 17.90625 18.707031 18.738281c0 0-18.535156 6.402344-18.84375 20.089844 0 0-3.648437-19.199219-18.285156-19.886719-.003906 0 17.046875-2.582031 18.421875-18.941406zm0 0" fill="#d7e057"/><path d="m22.347656 98.980469c-1.425781 0-2.675781-1.011719-2.945312-2.4375-.03125-.164063-3.410156-16.886719-15.476563-17.453125-1.542969-.074219-2.777343-1.300782-2.859375-2.84375-.078125-1.539063 1.023438-2.886719 2.546875-3.121094.59375-.09375 14.730469-2.484375 15.882813-16.226562.125-1.453126 1.273437-2.605469 2.722656-2.738282 1.453125-.132812 2.785156.800782 3.164062 2.207032.042969.15625 4.453126 15.839843 15.988282 16.527343 1.425781.085938 2.597656 1.167969 2.789062 2.585938.199219 1.417969-.636718 2.777343-1.988281 3.246093-.164063.054688-16.566406 5.902344-16.828125 17.324219-.035156 1.535157-1.222656 2.792969-2.75 2.921875-.082031.007813-.164062.007813-.246094.007813zm-9.039062-23.050781c4.214844 2.664062 7.046875 6.785156 8.894531 10.558593 2.753906-4.464843 7.03125-7.746093 10.730469-9.945312-4.574219-2.539063-7.769532-6.699219-9.882813-10.445313-2.347656 4.570313-6.03125 7.75-9.742187 9.832032zm0 0" fill="#3a312a"/><path d="m22.488281 3.839844s4.824219 17.90625 18.707031 18.734375c0 0-18.535156 6.402343-18.84375 20.089843 0 0-3.648437-19.199218-18.285156-19.886718-.003906.003906 17.046875-2.582032 18.421875-18.9375zm0 0" fill="#d7e057"/><path d="m22.347656 45.667969c-1.425781 0-2.675781-1.015625-2.945312-2.441407-.03125-.164062-3.410156-16.878906-15.476563-17.449218-1.542969-.074219-2.777343-1.304688-2.855469-2.84375-.082031-1.542969 1.023438-2.890625 2.546876-3.121094.589843-.09375 14.726562-2.488281 15.882812-16.226562.121094-1.453126 1.269531-2.605469 2.71875-2.734376 1.453125-.128906 2.785156.800782 3.167969 2.203126.082031.300781 4.507812 15.839843 15.988281 16.527343 1.425781.085938 2.597656 1.167969 2.789062 2.585938.199219 1.417969-.636718 2.777343-1.988281 3.242187-.164062.058594-16.566406 5.90625-16.828125 17.324219-.035156 1.535156-1.222656 2.796875-2.75 2.921875-.085937.007812-.167968.011719-.25.011719zm-9.039062-23.054688c4.214844 2.664063 7.046875 6.785157 8.894531 10.558594 2.75-4.46875 7.027344-7.746094 10.730469-9.945313-4.574219-2.539062-7.769532-6.699218-9.882813-10.449218-2.347656 4.574218-6.03125 7.753906-9.742187 9.835937zm0 0" fill="#3a312a"/><path d="m336.015625 449.617188v-45.074219c0-27.472657-22.265625-49.738281-49.738281-49.738281h-32.863282v-21.355469c-9.089843 6.300781-18.492187 10.015625-27.617187 10.015625-8.753906 0-17.992187-3.753906-27.042969-10.128906h-.558594v21.46875h-32.882812c-27.46875 0-49.738281 22.265624-49.738281 49.738281v45.074219zm0 0" fill="#fce8cb"/><path d="m336.015625 452.617188h-220.4375c-1.65625 0-3-1.34375-3-3v-45.074219c0-29.082031 23.65625-52.738281 52.738281-52.738281h29.882813v-18.46875c0-1.65625 1.339843-3 3-3h.558593c.617188 0 1.21875.191406 1.726563.546874 9.027344 6.359376 17.542969 9.582032 25.316406 9.582032 8.113281 0 16.832031-3.191406 25.910157-9.484375.917968-.636719 2.113281-.707031 3.101562-.191407.988281.515626 1.609375 1.539063 1.609375 2.65625v18.359376h29.859375c29.082031 0 52.738281 23.65625 52.738281 52.738281v45.074219c-.003906 1.65625-1.34375 3-3.003906 3zm-217.4375-6h214.441406v-42.074219c0-25.773438-20.96875-46.738281-46.738281-46.738281h-32.863281c-1.65625 0-3-1.34375-3-3v-15.867188c-8.457031 5-16.71875 7.527344-24.621094 7.527344-7.777344 0-16.03125-2.660156-24.597656-7.925782v16.265626c0 1.65625-1.34375 3-3 3h-32.886719c-25.769531 0-46.738281 20.964843-46.738281 46.738281v42.074219zm0 0" fill="#3a312a"/><path d="m336.019531 449.621094v-45.09375c0-27.472656-22.265625-49.738282-49.738281-49.738282h-7.863281l.203125.152344-34.179688 45.332032-17.640625-13.289063-17.636719 13.289063-34.183593-45.332032.207031-.152344h-9.871094c-27.472656 0-49.738281 22.269532-49.738281 49.738282v45.09375zm0 0" fill="#8ac6dd"/><path d="m336.019531 452.621094h-220.441406c-1.65625 0-3-1.34375-3-3v-45.09375c0-29.078125 23.65625-52.738282 52.738281-52.738282h9.871094c1.296875 0 2.445312.832032 2.851562 2.066407.023438.082031.046876.164062.066407.242187l31.648437 41.972656 15.242188-11.484374c1.070312-.804688 2.542968-.804688 3.613281 0l15.246094 11.484374 31.644531-41.96875c.019531-.082031.042969-.160156.066406-.242187.402344-1.234375 1.554688-2.070313 2.855469-2.070313h7.859375c29.082031 0 52.742188 23.65625 52.742188 52.738282v45.09375c-.003907 1.65625-1.347657 3-3.003907 3zm-217.441406-6h214.441406v-42.09375c0-25.769532-20.96875-46.738282-46.742187-46.738282h-6.050782l-33.390624 44.285157c-1 1.324219-2.878907 1.585937-4.203126.589843l-15.832031-11.929687-15.835937 11.929687c-1.324219.996094-3.203125.734376-4.199219-.589843l-33.394531-44.285157h-8.058594c-25.769531 0-46.738281 20.964844-46.738281 46.738282v42.09375zm0 0" fill="#3a312a"/><path d="m159.960938 231.507812c0 10.804688-8.761719 19.566407-19.570313 19.566407-10.8125 0-19.570313-8.761719-19.570313-19.566407 0-10.8125 8.761719-19.574218 19.570313-19.574218s19.570313 8.761718 19.570313 19.574218zm0 0" fill="#fce8cb" fill-rule="evenodd"/><path d="m140.390625 254.074219c-12.445313 0-22.574219-10.121094-22.574219-22.570313 0-12.445312 10.125-22.570312 22.574219-22.570312 12.445313 0 22.570313 10.125 22.570313 22.570312 0 12.449219-10.125 22.570313-22.570313 22.570313zm0-39.140625c-9.136719 0-16.574219 7.433594-16.574219 16.570312 0 9.136719 7.4375 16.570313 16.574219 16.570313s16.570313-7.433594 16.570313-16.570313c0-9.136718-7.433594-16.570312-16.570313-16.570312zm0 0" fill="#3a312a"/><path d="m330.78125 231.507812c0 10.804688-8.761719 19.566407-19.570312 19.566407-10.808594 0-19.570313-8.761719-19.570313-19.566407 0-10.8125 8.761719-19.574218 19.570313-19.574218 10.808593 0 19.570312 8.761718 19.570312 19.574218zm0 0" fill="#fce8cb" fill-rule="evenodd"/><path d="m311.210938 254.074219c-12.445313 0-22.574219-10.121094-22.574219-22.570313 0-12.445312 10.125-22.570312 22.574219-22.570312 12.445312 0 22.570312 10.125 22.570312 22.570312 0 12.449219-10.125 22.570313-22.570312 22.570313zm0-39.140625c-9.140626 0-16.574219 7.433594-16.574219 16.570312 0 9.136719 7.433593 16.570313 16.574219 16.570313 9.136718 0 16.570312-7.433594 16.570312-16.570313 0-9.136718-7.433594-16.570312-16.570312-16.570312zm0 0" fill="#3a312a"/><path d="m312.558594 222.007812c0 47.914063-46.148438 121.460938-86.757813 121.460938-38.765625 0-86.761719-73.546875-86.761719-121.460938 0-47.917968 38.84375-86.761718 86.761719-86.761718 47.914063 0 86.757813 38.84375 86.757813 86.761718zm0 0" fill="#fce8cb"/><path d="m225.800781 346.46875c-18.75 0-41.324219-16.46875-60.386719-44.058594-18.117187-26.21875-29.375-57.03125-29.375-80.402344 0-49.496093 40.265626-89.761718 89.761719-89.761718 49.492188 0 89.757813 40.265625 89.757813 89.761718 0 23.636719-10.984375 54.441407-28.667969 80.386719-19.09375 28.007813-41.355469 44.074219-61.089844 44.074219zm0-208.222656c-46.1875 0-83.761719 37.574218-83.761719 83.761718 0 22.21875 10.847657 51.722657 28.3125 76.992188 17.941407 25.964844 38.671876 41.46875 55.449219 41.46875 17.457031 0 38.4375-15.496094 56.128907-41.453125 17.042968-25.007813 27.628906-54.515625 27.628906-77.011719 0-46.183594-37.574219-83.757812-83.757813-83.757812zm0 0" fill="#3a312a"/><path d="m203.636719 221.027344c0 4.675781-3.792969 8.464844-8.46875 8.464844s-8.46875-3.789063-8.46875-8.464844c0-4.679688 3.792969-8.46875 8.46875-8.46875s8.46875 3.789062 8.46875 8.46875zm0 0" fill="#3a312a"/><path d="m264.898438 221.027344c0 4.675781-3.792969 8.464844-8.46875 8.464844-4.675782 0-8.46875-3.789063-8.46875-8.464844 0-4.675782 3.792968-8.46875 8.46875-8.46875 4.679687 0 8.46875 3.792968 8.46875 8.46875zm0 0" fill="#3a312a"/><path d="m192.832031 246.203125c0 6.019531-6.53125 10.90625-14.589843 10.90625-8.054688 0-14.585938-4.882813-14.585938-10.90625s6.53125-10.90625 14.585938-10.90625c8.058593 0 14.589843 4.882813 14.589843 10.90625zm0 0" fill="#f5978a"/><path d="m287.941406 246.203125c0 6.019531-6.53125 10.90625-14.585937 10.90625-8.058594 0-14.589844-4.882813-14.589844-10.90625s6.53125-10.90625 14.589844-10.90625c8.054687 0 14.585937 4.882813 14.585937 10.90625zm0 0" fill="#f5978a"/><path d="m226.800781 116.097656c-49.59375 0-89.800781 38.4375-89.800781 85.855469 0 5.019531.90625 8.757813 2.597656 13.429687.792969 2.203126 13.652344-4.832031 14.746094-5.601562 5.476562-3.851562 9.949219-9.078125 13.292969-14.855469 1.382812-2.402343 2.539062-4.847656 3.464843-7.289062 2.960938-7.796875 11.003907-29.5 19.167969-27.796875 10.949219 2.28125 23.363281 3.570312 36.53125 3.570312 13.164063 0 25.578125-1.289062 36.527344-3.570312 8.167969-1.703125 16.210937 19.996094 19.167969 27.796875.929687 2.441406 2.082031 4.886719 3.464844 7.289062 5.523437 9.554688 14.855468 18.652344 26.207031 20.308594.027343-.546875.71875-.738281 1.234375-.921875 3.71875-1.351562 3.195312-9.378906 3.195312-12.359375.003906-47.417969-40.203125-85.855469-89.796875-85.855469zm0 0" fill="#87796f"/><path d="m140.34375 218.769531c-.457031 0-.875-.050781-1.234375-.164062-1.101563-.347657-1.957031-1.152344-2.332031-2.207031-1.714844-4.742188-2.773438-8.808594-2.773438-14.445313 0-48.996094 41.628906-88.855469 92.796875-88.855469 51.171875 0 92.800781 39.859375 92.800781 88.851563l.011719.960937c.0625 4.265625.175781 12.179688-5.089843 14.183594-.132813.164062-.285157.316406-.449219.453125-.652344.535156-1.5.773437-2.335938.652344-10.792969-1.574219-21.398437-9.714844-28.371093-21.777344-1.441407-2.5-2.675782-5.101563-3.671876-7.726563l-.183593-.488281c-9.09375-23.992187-13.914063-25.785156-15.566407-25.4375-11.578124 2.410157-24.074218 3.632813-37.144531 3.632813-13.066406 0-25.5625-1.222656-37.140625-3.632813-1.648437-.34375-6.472656 1.441407-15.5625 25.429688l-.191406.496093c-.996094 2.625-2.226562 5.226563-3.667969 7.722657-3.730469 6.449219-8.628906 11.914062-14.164062 15.8125-.109375.074219-10.621094 6.539062-15.730469 6.539062zm86.457031-99.671875c-47.863281 0-86.800781 37.167969-86.800781 82.855469 0 4.074219.640625 7.136719 1.78125 10.574219 3.070312-.988282 9.441406-4.265625 10.851562-5.210938 4.816407-3.386718 9.113282-8.199218 12.410157-13.894531 1.273437-2.214844 2.371093-4.523437 3.253906-6.851563l.1875-.496093c6.175781-16.289063 13.140625-31.097657 22.398437-29.175781 11.175782 2.332031 23.261719 3.511718 35.917969 3.511718s24.742188-1.179687 35.917969-3.511718c9.230469-1.941407 16.226562 12.890624 22.402344 29.191406l.183594.480468c.882812 2.328126 1.980468 4.636719 3.257812 6.859376 5.742188 9.929687 14.113281 16.773437 22.625 18.582031.320312-.183594.675781-.339844 1.070312-.480469.347657-.125 1.460938-.917969 1.351563-8.53125l-.007813-1.046875c0-45.6875-38.941406-82.855469-86.800781-82.855469zm0 0" fill="#3a312a"/><path d="m175.003906 354.921875 17.714844-13.351563 34.171875 45.339844-17.714844 13.351563zm0 0" fill="#87796f"/><path d="m209.160156 403.269531c-.90625 0-1.804687-.410156-2.394531-1.195312l-34.171875-45.339844c-.996094-1.324219-.734375-3.203125.589844-4.199219l17.710937-13.347656c.636719-.480469 1.441407-.683594 2.222657-.578125.789062.109375 1.5.53125 1.980468 1.164063l34.167969 45.339843c.480469.636719.6875 1.4375.578125 2.222657-.113281.789062-.53125 1.5-1.167969 1.976562l-17.710937 13.347656c-.539063.414063-1.175782.609375-1.804688.609375zm-29.96875-47.75 30.558594 40.550781 12.921875-9.738281-30.558594-40.550781zm0 0" fill="#3a312a"/><path d="m244.457031 400.261719-17.714843-13.351563 34.171874-45.339844 17.714844 13.351563zm0 0" fill="#87796f"/><path d="m244.441406 403.269531c-.628906 0-1.261718-.195312-1.804687-.605469l-17.714844-13.347656c-.636719-.476562-1.054687-1.1875-1.164063-1.976562-.109374-.789063.097657-1.585938.578126-2.222656l34.171874-45.339844c.476563-.636719 1.1875-1.054688 1.976563-1.164063.785156-.109375 1.585937.097657 2.222656.578125l17.710938 13.347656c1.324219.996094 1.589843 2.875.589843 4.199219l-34.167968 45.339844c-.59375.78125-1.492188 1.191406-2.398438 1.191406zm-13.511718-16.9375 12.921874 9.738281 30.558594-40.550781-12.921875-9.738281zm0 0" fill="#3a312a"/><path d="m156.867188 452.621094c-1.65625 0-3-1.34375-3-3v-35.625c0-1.65625 1.34375-3 3-3 1.660156 0 3 1.34375 3 3v35.625c0 1.65625-1.339844 3-3 3zm0 0" fill="#3a312a"/><path d="m152.40625 132.945312c14.726562 18.542969 32.347656 38.316407 53.625 44.363282 34.269531 9.746094 94.925781-2.410156 94.925781-51.738282 0-31.539062-26.4375-69.664062-75.777343-40.636718-61.15625 35.980468-96.65625-33.183594-96.65625-1.640625 0 9.96875 4.015624 19.914062 9.289062 28.960937zm0 0" fill="#87796f"/><path d="m230.027344 183.402344c-8.988282 0-17.542969-1.136719-24.820313-3.207032-21.6875-6.167968-39.324219-25.457031-55.148437-45.386718-.035156-.042969-.070313-.089844-.101563-.132813l-14.597656-20.695312c-.050781-.070313-.09375-.140625-.140625-.214844-6.523438-11.199219-9.695312-21.167969-9.695312-30.472656 0-3.957031.441406-8.753907 3.890624-10.707031 4.101563-2.328126 9.167969.710937 16.832032 5.308593 15.738281 9.441407 42.082031 25.238281 77.410156 4.453125 26.226562-15.425781 44.375-11.433594 54.984375-5.363281 17.488281 10 25.316406 31.609375 25.316406 48.585937 0 17.195313-7.1875 31.707032-20.78125 41.976563-14.746093 11.140625-34.847656 15.855469-53.148437 15.855469zm-75.21875-52.253906c15.1875 19.117187 32.003906 37.578124 52.042968 43.277343 20.675782 5.878907 52.289063 3.757813 72.707032-11.660156 12.207031-9.222656 18.398437-21.734375 18.398437-37.191406 0-15.246094-6.894531-34.570313-22.292969-43.378907-13.238281-7.570312-30.171874-5.730468-48.960937 5.328126-38.40625 22.589843-67.765625 4.980468-83.539063-4.476563-3.984374-2.390625-9.417968-5.667969-10.8125-5.226563.015626 0-.828124.855469-.828124 5.472657 0 8.1875 2.882812 17.132812 8.816406 27.339843zm0 0" fill="#3a312a"/><path d="m225.796875 295.378906c-12.449219 0-21.429687-5.59375-26.683594-16.632812-.710937-1.492188-.074219-3.285156 1.421875-3.996094 1.5-.710938 3.285156-.074219 3.996094 1.421875 4.234375 8.886719 11.1875 13.207031 21.265625 13.207031 12.894531 0 19.480469-8.484375 21.164063-12.972656.578124-1.550781 2.308593-2.339844 3.859374-1.757812 1.554688.582031 2.339844 2.3125 1.757813 3.863281-3.042969 8.125-12.71875 16.867187-26.78125 16.867187zm0 0" fill="#3a312a"/><path d="m296.734375 452.621094c-1.660156 0-3-1.34375-3-3v-35.625c0-1.65625 1.339844-3 3-3 1.65625 0 3 1.34375 3 3v35.625c0 1.65625-1.34375 3-3 3zm0 0" fill="#3a312a"/><path d="m429.117188 23.738281c-27.648438-27.648437-72.480469-27.648437-100.128907 0-27.648437 27.652344-27.648437 72.480469 0 100.128907 27.648438 27.648437 72.480469 27.648437 100.128907 0 27.648437-27.648438 27.648437-72.476563 0-100.128907zm0 0" fill="#f16c7a"/><path d="m379.054688 147.601562c-40.691407 0-73.800782-33.105468-73.800782-73.800781 0-40.691406 33.109375-73.800781 73.800782-73.800781 40.695312 0 73.800781 33.109375 73.800781 73.800781 0 40.695313-33.105469 73.800781-73.800781 73.800781zm0-141.601562c-37.382813 0-67.800782 30.414062-67.800782 67.800781s30.417969 67.800781 67.800782 67.800781c37.386718 0 67.800781-30.414062 67.800781-67.800781s-30.414063-67.800781-67.800781-67.800781zm0 0" fill="#3a312a"/><path d="m339.796875 88.535156c-.058594 0-.109375-.007812-.167969-.007812v24.230468c0 5.660157 4.585938 10.242188 10.246094 10.242188h58.359375c5.660156 0 10.246094-4.582031 10.246094-10.242188v-62.542968l-25.613281-25.609375h-42.992188c-5.660156 0-10.242188 4.582031-10.242188 10.246093v27.164063c.054688 0 .109376-.007813.164063-.007813zm0 0" fill="#f7e3c7"/><path d="m408.234375 126h-58.359375c-7.304688 0-13.246094-5.941406-13.246094-13.242188v-24.230468c0-.804688.324219-1.578125.898438-2.140625.578125-.566407 1.363281-.871094 2.15625-.859375.054687 0 .195312.007812.253906.011718 1.65625 0 2.929688 1.339844 2.929688 2.996094 0 .40625-.085938.792969-.238282 1.144532v23.074218c0 3.992188 3.25 7.242188 7.246094 7.242188h58.359375c3.996094 0 7.246094-3.25 7.246094-7.242188v-61.296875l-23.855469-23.855469h-41.75c-3.996094 0-7.246094 3.25-7.246094 7.246094v26.171875c.109375.304688.167969.636719.167969.984375 0 1.675782-1.371094 2.992188-3.054687 3-.785157 0-1.597657-.304687-2.15625-.855468-.574219-.5625-.957032-1.332032-.957032-2.136719v-27.164063c0-7.304687 5.941406-13.246094 13.246094-13.246094h42.992188c.796874 0 1.558593.316407 2.121093.878907l25.617188 25.613281c.558593.5625.875 1.328125.875 2.121094v62.539062c0 7.304688-5.941407 13.246094-13.246094 13.246094zm0 0" fill="#3a312a"/><path d="m403.988281 53.292969h-49.867187c-1.660156 0-3-1.34375-3-3 0-1.660157 1.339844-3 3-3h49.867187c1.660157 0 3 1.339843 3 3 0 1.65625-1.339843 3-3 3zm0 0" fill="#3a312a"/><path d="m403.988281 77.742188h-49.867187c-1.660156 0-3-1.339844-3-3 0-1.65625 1.339844-3 3-3h49.867187c1.660157 0 3 1.34375 3 3 0 1.660156-1.339843 3-3 3zm0 0" fill="#3a312a"/><path d="m403.988281 102.195312h-49.867187c-1.660156 0-3-1.339843-3-3 0-1.65625 1.339844-3 3-3h49.867187c1.660157 0 3 1.34375 3 3 0 1.660157-1.339843 3-3 3zm0 0" fill="#3a312a"/><path d="m418.480469 50.214844v.066406h-16.539063c-4.984375 0-9.019531-4.039062-9.019531-9.019531v-16.605469zm0 0" fill="#f7e3c7"/><path d="m418.480469 53.28125h-16.539063c-6.628906 0-12.019531-5.394531-12.019531-12.019531v-16.605469c0-1.210938.726563-2.304688 1.851563-2.769531 1.121093-.464844 2.410156-.207031 3.269531.648437l25.558593 25.5625c.5625.558594.878907 1.324219.878907 2.117188v.066406c0 1.65625-1.34375 3-3 3zm-22.558594-21.382812v9.359374c0 3.320313 2.699219 6.019532 6.019531 6.019532h9.359375zm0 0" fill="#3a312a"/><path d="m445.277344 153.363281v291.660157c-9.882813-3.917969-19.902344-7.300782-30-10.078126v-40.679687c1.636718.457031 3.277344.9375 4.917968 1.4375 1.582032.480469 3.242188-.417969 3.742188-2 .457031-1.578125-.421875-3.257813-2.023438-3.738281-2.199218-.660156-4.417968-1.300782-6.636718-1.921875v-35.199219c1.636718.460938 3.277344.941406 4.917968 1.441406 1.582032.480469 3.242188-.421875 3.742188-2 .457031-1.582031-.421875-3.261718-2.023438-3.742187-2.199218-.660157-4.417968-1.300781-6.636718-1.898438v-35.21875c1.636718.457031 3.277344.9375 4.917968 1.4375 1.582032.480469 3.242188-.417969 3.742188-2 .457031-1.578125-.421875-3.257812-2.023438-3.738281-2.199218-.660156-4.417968-1.300781-6.636718-1.902344v-35.199218c1.636718.441406 3.277344.921874 4.917968 1.421874 1.582032.480469 3.261719-.421874 3.742188-2 .457031-1.582031-.421875-3.261718-2.023438-3.742187-2.199218-.660156-4.417968-1.300781-6.636718-1.898437v-35.199219c1.636718.4375 3.277344.917969 4.917968 1.417969 1.582032.480468 3.242188-.417969 3.742188-2 .457031-1.578126-.421875-3.257813-2.023438-3.738282-2.199218-.660156-4.417968-1.300781-6.636718-1.902344v-35.199218c1.636718.441406 3.277344.921875 4.917968 1.421875 1.582032.480469 3.261719-.421875 3.742188-2 .457031-1.582031-.421875-3.261719-2.023438-3.742188-2.199218-.660156-4.417968-1.300781-6.636718-1.898437v-14.261719c0-8.191406-5.171875-15.511719-12.90625-18.222656-2.535156-.890625-5.082032-1.742188-7.636719-2.554688 4.902344-1.0625 9.621094-2.621093 14.121094-4.621093 12.300781 3.199218 24.460937 7.199218 36.421875 12.058593zm0 0" fill="#b9c239"/></svg>