<svg height="512" viewBox="0 0 512 512" width="512" xmlns="http://www.w3.org/2000/svg"><g><g><path d="m224 24v128h-120v48l-48-48h-40v-128z" fill="#ffda44"/><path d="m288 64v105h120v48l48-48h40v-105z" fill="#ff9811"/><g><path d="m184 336h32a40 40 0 0 1 40 40v112h-176v-112a40 40 0 0 1 40-40h32" fill="#006df0"/><path d="m206.89 231.55c-47.38 23.33-78.89 15.45-78.89 15.45v-7a40.015 40.015 0 0 1 40-40 39.305 39.305 0 0 1 28.28 12.22 41.7 41.7 0 0 1 10.53 19.02c.03.1.06.21.08.31z" fill="#ff9811"/><g fill="#ffdaaa"><path d="m208 241v31a40 40 0 0 1 -80 0v-25s31.51 7.88 78.89-15.45a40.59 40.59 0 0 1 1.11 9.45z"/><path d="m184 312v16a16 16 0 0 1 -32 0v-16z"/></g></g><g><path d="m360 336h32a40 40 0 0 1 40 40v112h-176v-112a40 40 0 0 1 40-40h32" fill="#78b9eb"/><path d="m382.89 231.55c-47.38 23.33-78.89 15.45-78.89 15.45v-7a40.015 40.015 0 0 1 40-40 39.305 39.305 0 0 1 28.28 12.22 41.7 41.7 0 0 1 10.53 19.02c.03.1.06.21.08.31z" fill="#ffda44"/><g fill="#ffdaaa"><path d="m384 241v31a40 40 0 0 1 -80 0v-25s31.51 7.88 78.89-15.45a40.59 40.59 0 0 1 1.11 9.45z"/><path d="m360 312v16a16 16 0 0 1 -32 0v-16z"/></g></g></g><g><path d="m392 328h-24v-14.46a48.012 48.012 0 0 0 24-41.54v-40c0-.23-.01-.45-.03-.68a49.189 49.189 0 0 0 -13.93-32.66 47.093 47.093 0 0 0 -34.04-14.66 48.051 48.051 0 0 0 -48 48v40a48.012 48.012 0 0 0 24 41.54v14.46h-24a48 48 0 0 0 -40 21.51 48 48 0 0 0 -40-21.51h-24v-14.46a48.012 48.012 0 0 0 24-41.54v-40c0-.23-.01-.45-.03-.68a49.189 49.189 0 0 0 -13.93-32.66 47.093 47.093 0 0 0 -34.04-14.66 48.051 48.051 0 0 0 -48 48v40a48.012 48.012 0 0 0 24 41.54v14.46h-24a48.051 48.051 0 0 0 -48 48v112a8 8 0 0 0 8 8h352a8 8 0 0 0 8-8v-112a48.051 48.051 0 0 0 -48-48zm-256-96a32.042 32.042 0 0 1 32-32c12.65 0 23.86 8.04 29.01 19.34-19.84 8.84-36.12 11.77-46.71 12.62a92.371 92.371 0 0 1 -14.3.08zm0 40v-23.92c1.88.12 3.99.2 6.35.2 12.94 0 32.94-2.34 57.65-12.79v36.51a32 32 0 0 1 -64 0zm40 47.32v16.68a8 8 0 0 1 -16 0v-16.68a47.4 47.4 0 0 0 16 0zm72 160.68h-16v-96a8 8 0 0 0 -16 0v96h-96v-96a8 8 0 0 0 -16 0v96h-16v-104a32.042 32.042 0 0 1 32-32h25.38a23.99 23.99 0 0 0 45.24 0h25.38a32.042 32.042 0 0 1 32 32zm64-248a32.042 32.042 0 0 1 32-32c12.65 0 23.86 8.04 29.01 19.34-19.84 8.84-36.12 11.77-46.71 12.62a92.371 92.371 0 0 1 -14.3.08zm0 40v-23.92c1.88.12 3.99.2 6.35.2 12.94 0 32.94-2.34 57.65-12.79v36.51a32 32 0 0 1 -64 0zm40 47.32v16.68a8 8 0 0 1 -16 0v-16.68a47.4 47.4 0 0 0 16 0zm72 160.68h-16v-96a8 8 0 0 0 -16 0v96h-96v-96a8 8 0 0 0 -16 0v96h-16v-104a32.042 32.042 0 0 1 32-32h25.38a23.99 23.99 0 0 0 45.24 0h25.38a32.042 32.042 0 0 1 32 32z"/><path d="m104 208a8 8 0 0 0 8-8v-40h112a8 8 0 0 0 8-8v-128a8 8 0 0 0 -8-8h-208a8 8 0 0 0 -8 8v128a8 8 0 0 0 8 8h36.687l45.656 45.657a8 8 0 0 0 5.657 2.343zm-8-27.313-34.343-34.344a8 8 0 0 0 -5.657-2.343h-32v-112h192v112h-112a8 8 0 0 0 -8 8z"/><path d="m496 56h-208a8 8 0 0 0 -8 8v105a8 8 0 0 0 8 8h112v40a8 8 0 0 0 13.657 5.657l45.656-45.657h36.687a8 8 0 0 0 8-8v-105a8 8 0 0 0 -8-8zm-8 105h-32a8 8 0 0 0 -5.657 2.343l-34.343 34.344v-28.687a8 8 0 0 0 -8-8h-112v-89h192z"/></g></g></svg>