<svg viewBox="0 -62 512 511" xmlns="http://www.w3.org/2000/svg"><path d="m207 138h-30l5 65v75c24.851562 0 45-20.148438 45-45v-75c0-11.046875-8.953125-20-20-20zm0 0" fill="#cf301b"/><path d="m177 138h-20c-11.046875 0-20 8.953125-20 20v45l-30 30 30 45 22.5 15 22.5-15c8.285156 0 15-20.148438 15-45v-75c0-11.046875-8.953125-20-20-20zm0 0" fill="#ff4128"/><path d="m137 278h-30l-63.5-60 93.5 15zm0 0" fill="#a45e43"/><path d="m22.5 218h84.5v60h-84.5zm0 0" fill="#c27749"/><path d="m107 203-30 15 30 15h30v-30zm0 0" fill="#e18f4e"/><path d="m7.5 203h99.5v30h-99.5zm0 0" fill="#ffa754"/><path d="m213.5 278-20 15 20 15h30v-30zm0 0" fill="#e18f4e"/><path d="m137 278h76.5v30h-76.5zm0 0" fill="#ffa754"/><path d="m247 123c-11.046875 0-20-8.953125-20-20v-40c22.089844 0 40 17.910156 40 40 0 11.046875-8.953125 20-20 20zm0 0" fill="#ff6337"/><path d="m196.09375 47.546875-14.09375 60.453125c24.851562 0 45-20.148438 45-45zm0 0" fill="#ffb4a9"/><path d="m197 63c0-5.429688-.320312-10.632812-.90625-15.453125l-41.097656-20.546875c-10.925782 8.210938-17.996094 21.277344-17.996094 36 0 24.851562 20.148438 45 45 45 8.285156 0 15-20.148438 15-45zm0 0" fill="#ffd9d0"/><path d="m182 18 14.898438 39.832031c9.414062 3.339844 19.542968 5.167969 30.101562 5.167969 0-24.851562-20.148438-45-45-45zm0 0" fill="#ff6337"/><path d="m182 18c-10.132812 0-19.480469 3.351562-27.003906 9.003906 10.53125 14.019532 25.066406 24.855469 41.902344 30.828125-.855469-22.417969-7.199219-39.832031-14.898438-39.832031zm0 0" fill="#ff8646"/><path d="m443 203v75c24.851562 0 45-20.148438 45-45zm0 0" fill="#2dade3"/><path d="m458 233v-15h-90l30 60 22.5 15 22.5-15c8.285156 0 15-20.148438 15-45zm0 0" fill="#49c9ff"/><path d="m468 138h-30l20 95h30v-75c0-11.046875-8.953125-20-20-20zm0 0" fill="#ffcb63"/><path d="m438 138h-20c-11.046875 0-20 8.953125-20 20v45l-30 30h90v-75c0-11.046875-8.953125-20-20-20zm0 0" fill="#ffe2a8"/><path d="m398 278h-30l-63.5-60 93.5 15zm0 0" fill="#a45e43"/><path d="m283.5 218h84.5v60h-84.5zm0 0" fill="#c27749"/><path d="m368 203-30 15 30 15h30v-30zm0 0" fill="#e18f4e"/><path d="m268.5 203h99.5v30h-99.5zm0 0" fill="#ffa754"/><path d="m474.5 278-20 15 20 15h30v-30zm0 0" fill="#e18f4e"/><path d="m398 278h76.5v30h-76.5zm0 0" fill="#ffa754"/><path d="m443 18v90c24.851562 0 45-20.148438 45-45s-20.148438-45-45-45zm0 0" fill="#60312c"/><path d="m458 63c0-24.851562-6.714844-45-15-45-24.851562 0-45 20.148438-45 45s20.148438 45 45 45c8.285156 0 15-20.148438 15-45zm0 0" fill="#85453d"/><path d="m243.5 270.5h-24.808594c9.746094-9.535156 15.808594-22.820312 15.808594-37.5v-75c0-15.164062-12.335938-27.5-27.5-27.5h-50c-12.449219 0-22.988281 8.320312-26.363281 19.691406-34.246094-3.21875-61.136719-32.117187-61.136719-67.191406 0-4.140625-3.359375-7.5-7.5-7.5s-7.5 3.359375-7.5 7.5c0 42.960938 33.011719 78.339844 75 82.144531v30.355469h-122c-1.988281 0-3.898438.789062-5.304688 2.195312-1.40625 1.410157-2.195312 3.316407-2.195312 5.304688v30c0 4.140625 3.359375 7.5 7.5 7.5h7.5v140c0 4.140625 3.359375 7.5 7.5 7.5s7.5-3.359375 7.5-7.5v-95h99.5v95c0 4.140625 3.359375 7.5 7.5 7.5s7.5-3.359375 7.5-7.5v-65h91.5v65c0 4.140625 3.359375 7.5 7.5 7.5s7.5-3.359375 7.5-7.5v-102.5c0-4.140625-3.359375-7.5-7.5-7.5zm-86.5-125h50c6.894531 0 12.5 5.605469 12.5 12.5v75c0 20.679688-16.820312 37.5-37.5 37.5h-37.5v-112.5c0-6.894531 5.605469-12.5 12.5-12.5zm-27.5 65v15h-114.5v-15zm-99.5 60v-30h99.5v30zm114.5 30v-15h91.5v15zm0 0"/><path d="m97 300.5c-4.140625 0-7.5 3.359375-7.5 7.5v57.09375l-24.871094 8.292969c-3.929687 1.308593-6.054687 5.554687-4.746094 9.484375 1.050782 3.144531 3.976563 5.132812 7.113282 5.132812.789062 0 1.589844-.125 2.375-.390625l30-10c3.0625-1.019531 5.128906-3.886719 5.128906-7.113281v-62.5c0-4.140625-3.359375-7.5-7.5-7.5zm0 0"/><path d="m504.5 270.5h-24.808594c9.746094-9.535156 15.808594-22.820312 15.808594-37.5v-75c0-15.164062-12.335938-27.5-27.5-27.5h-50c-12.449219 0-22.988281 8.320312-26.363281 19.691406-34.246094-3.21875-61.136719-32.117187-61.136719-67.191406 0-4.140625-3.355469-7.5-7.5-7.5s-7.5 3.359375-7.5 7.5c0 42.960938 33.011719 78.339844 75 82.144531v30.355469h-122c-4.144531 0-7.5 3.359375-7.5 7.5v30c0 4.140625 3.355469 7.5 7.5 7.5h7.5v140c0 4.140625 3.355469 7.5 7.5 7.5s7.5-3.359375 7.5-7.5v-95h99.5v95c0 4.140625 3.355469 7.5 7.5 7.5s7.5-3.359375 7.5-7.5v-65h91.5v65c0 4.140625 3.355469 7.5 7.5 7.5s7.5-3.359375 7.5-7.5v-102.5c0-4.140625-3.355469-7.5-7.5-7.5zm-99 0v-30h74.246094c-3.484375 17.097656-18.636719 30-36.746094 30zm12.5-125h50c6.894531 0 12.5 5.605469 12.5 12.5v67.5h-75v-67.5c0-6.894531 5.605469-12.5 12.5-12.5zm-142 65h114.5v15h-114.5zm15 60v-30h99.5v30zm114.5 30v-15h91.5v15zm0 0"/><path d="m358 300.5c-4.144531 0-7.5 3.359375-7.5 7.5v57.09375l-24.871094 8.292969c-3.929687 1.308593-6.054687 5.554687-4.742187 9.484375 1.046875 3.144531 3.972656 5.132812 7.113281 5.132812.785156 0 1.585938-.125 2.371094-.390625l30-10c3.0625-1.019531 5.128906-3.886719 5.128906-7.113281v-62.5c0-4.140625-3.355469-7.5-7.5-7.5zm0 0"/><path d="m443 115.5c28.949219 0 52.5-23.550781 52.5-52.5 0-16.703125-7.847656-31.597656-20.042969-41.21875l1.539063-2.664062c2.070312-3.585938.84375-8.171876-2.746094-10.242188-3.589844-2.074219-8.175781-.84375-10.242188 2.742188l-1.527343 2.644531c-3.796875-1.523438-7.808594-2.617188-11.980469-3.21875v-3.042969c0-4.140625-3.355469-7.5-7.5-7.5-4.140625 0-7.5 3.359375-7.5 7.5v3.042969c-4.171875.601562-8.179688 1.695312-11.976562 3.21875l-1.527344-2.644531c-2.070313-3.585938-6.660156-4.816407-10.246094-2.742188-3.585938 2.070312-4.816406 6.65625-2.742188 10.242188l1.535157 2.664062c-12.191407 9.621094-20.039063 24.515625-20.039063 41.21875-.003906 28.949219 23.546875 52.5 52.496094 52.5zm0-90c20.679688 0 37.5 16.820312 37.5 37.5s-16.820312 37.5-37.5 37.5-37.5-16.820312-37.5-37.5 16.820312-37.5 37.5-37.5zm0 0"/><path d="m182 115.5c14.679688 0 27.964844-6.0625 37.5-15.808594v3.308594c0 15.164062 12.335938 27.5 27.5 27.5s27.5-12.335938 27.5-27.5c0-23.804688-17.605469-43.574219-40.476562-46.976562-3.425782-25.660157-25.441407-45.523438-52.023438-45.523438-28.949219 0-52.5 23.550781-52.5 52.5s23.550781 52.5 52.5 52.5zm77.5-12.5c0 6.894531-5.605469 12.5-12.5 12.5s-12.5-5.605469-12.5-12.5v-31.625c14.316406 3.394531 25 16.285156 25 31.625zm-40.847656-47.921875c-20.15625-2-38.582032-11.210937-52.296875-26.144531 4.765625-2.199219 10.0625-3.433594 15.644531-3.433594 17.960938 0 33.003906 12.695312 36.652344 29.578125zm-64.453125-17.21875c16.691406 18.804687 39.574219 30.246094 64.605469 32.300781-3.351563 17.265625-18.574219 30.339844-36.804688 30.339844-20.679688 0-37.5-16.820312-37.5-37.5 0-9.664062 3.675781-18.484375 9.699219-25.140625zm0 0"/></svg>